<svg xmlns="http://www.w3.org/2000/svg" viewBox="0 0 158.77 48.99"><defs><style>.cls-1{fill:#c20e1a;fill-rule:evenodd;}.cls-2{fill:#414342;}</style></defs><title>Aktiv 8</title><g id="Lag_2" data-name="Lag 2"><g id="Lag_1-2" data-name="Lag 1"><polygon class="cls-1" points="127.18 32.2 121 32.2 121 26.02 127.18 26.02 127.18 32.2 127.18 32.2"/><path class="cls-2" d="M56.24,11.39V11.3a11.28,11.28,0,0,0-.83-4.38,9.58,9.58,0,0,0-2.36-3.41,10.54,10.54,0,0,0-3.73-2.2,15,15,0,0,0-5-.78H31.59V31.67h6.85V22.33h5.21a16.89,16.89,0,0,0,4.91-.69,11.75,11.75,0,0,0,4-2.07,9.84,9.84,0,0,0,2.69-3.42,11,11,0,0,0,1-4.76Zm-6.94.13a4.47,4.47,0,0,1-1.43,3.36,5.58,5.58,0,0,1-4,1.35H38.44V6.72h5.3a6.32,6.32,0,0,1,4.07,1.2,4.25,4.25,0,0,1,1.49,3.51v.09Z"/><polygon class="cls-2" points="92.44 31.67 92.44 0.53 85.06 0.53 76.87 13.7 68.69 0.53 61.3 0.53 61.3 31.67 68.07 31.67 68.07 11.47 76.74 24.64 76.92 24.64 85.68 11.34 85.68 31.67 92.44 31.67 92.44 31.67"/><path class="cls-2" d="M114.1,26a9.54,9.54,0,0,1-3.8-.73,8.9,8.9,0,0,1-3-2.08,9.22,9.22,0,0,1-2-3.14,11,11,0,0,1-.69-3.95V16a10.21,10.21,0,0,1,.69-3.76,9.47,9.47,0,0,1,4.76-5.18,8.09,8.09,0,0,1,3.49-.77,12.4,12.4,0,0,1,2.45.22,10.86,10.86,0,0,1,2.07.62,11.64,11.64,0,0,1,1.84,1,17.13,17.13,0,0,1,1.78,1.33l4.32-5.2a21.18,21.18,0,0,0-2.5-1.82,14.59,14.59,0,0,0-2.75-1.34,18.47,18.47,0,0,0-3.18-.82A23.25,23.25,0,0,0,113.83,0a16.39,16.39,0,0,0-6.53,1.27,15.94,15.94,0,0,0-8.57,8.58,16.08,16.08,0,0,0-1.22,6.25v.09a16.73,16.73,0,0,0,1.2,6.4,15.12,15.12,0,0,0,3.36,5.08A15.4,15.4,0,0,0,107.23,31a17.77,17.77,0,0,0,6.65,1.2h6.4V26Zm13.08-.71H121V19.12h-6.19V12.94h12.37V25.31Z"/><path class="cls-2" d="M7,42.87a3,3,0,0,0-.24-1.24,2.59,2.59,0,0,0-.68-1A2.88,2.88,0,0,0,5,40.07a4.55,4.55,0,0,0-1.42-.21H0v9H1.56V46H3.35a4.88,4.88,0,0,0,1.4-.2,3.39,3.39,0,0,0,1.15-.59,2.71,2.71,0,0,0,.77-1A3,3,0,0,0,7,42.87Zm-1.6,0a1.5,1.5,0,0,1-.52,1.18,2.13,2.13,0,0,1-1.43.44H1.56V41.28H3.4a2.2,2.2,0,0,1,1.42.41,1.42,1.42,0,0,1,.53,1.21Zm3.3-3v9h1.57v-9ZM20.44,47.4l-1-1a5.45,5.45,0,0,1-1.16.85,3,3,0,0,1-1.41.32,2.82,2.82,0,0,1-2.13-.94,3.1,3.1,0,0,1-.62-1,3.64,3.64,0,0,1-.21-1.25,3.59,3.59,0,0,1,.21-1.24,3.06,3.06,0,0,1,.62-1,2.91,2.91,0,0,1,.94-.68,2.79,2.79,0,0,1,1.19-.25,2.91,2.91,0,0,1,1.37.31,4.77,4.77,0,0,1,1.14.81l1-1.17a5.19,5.19,0,0,0-.68-.56,4.28,4.28,0,0,0-.78-.45A4.83,4.83,0,0,0,18,39.8a6.39,6.39,0,0,0-1.12-.1,4.56,4.56,0,0,0-1.87.37,4.27,4.27,0,0,0-1.46,1,4.5,4.5,0,0,0-1,1.48,4.94,4.94,0,0,0-.34,1.81,4.8,4.8,0,0,0,.35,1.82,4.71,4.71,0,0,0,.95,1.47,4.58,4.58,0,0,0,1.45,1A4.51,4.51,0,0,0,16.8,49a5.65,5.65,0,0,0,1.14-.11,4.51,4.51,0,0,0,1-.32,5.5,5.5,0,0,0,.81-.5,6.49,6.49,0,0,0,.73-.66Zm9.2,0-1-1a5.25,5.25,0,0,1-1.17.85,2.94,2.94,0,0,1-1.41.32,2.9,2.9,0,0,1-1.18-.25,2.83,2.83,0,0,1-.94-.69,3.1,3.1,0,0,1-.62-1,3.42,3.42,0,0,1-.22-1.25,3.37,3.37,0,0,1,.22-1.24,3.06,3.06,0,0,1,.62-1,2.8,2.8,0,0,1,.94-.68,2.75,2.75,0,0,1,1.18-.25,3,3,0,0,1,1.38.31,4.77,4.77,0,0,1,1.14.81l1-1.17a5.19,5.19,0,0,0-.68-.56,4.28,4.28,0,0,0-.78-.45,4.83,4.83,0,0,0-.93-.29,6.39,6.39,0,0,0-1.12-.1,4.61,4.61,0,0,0-1.88.37,4.44,4.44,0,0,0-2.41,2.48,4.74,4.74,0,0,0-.34,1.81,4.79,4.79,0,0,0,.34,1.82,4.73,4.73,0,0,0,1,1.47,4.65,4.65,0,0,0,1.44,1A4.55,4.55,0,0,0,26,49a5.83,5.83,0,0,0,1.15-.11,4.51,4.51,0,0,0,1-.32,5.5,5.5,0,0,0,.81-.5,7.4,7.4,0,0,0,.72-.66ZM40,44.33a4.68,4.68,0,0,0-.35-1.79,4.5,4.5,0,0,0-1-1.48,4.43,4.43,0,0,0-1.47-1,4.7,4.7,0,0,0-1.9-.37,4.91,4.91,0,0,0-1.9.37,4.84,4.84,0,0,0-1.49,1,4.63,4.63,0,0,0-1,1.48,4.73,4.73,0,0,0-.35,1.8A4.68,4.68,0,0,0,31,46.15a4.4,4.4,0,0,0,2.44,2.47,4.83,4.83,0,0,0,1.89.37,4.77,4.77,0,0,0,3.39-1.38,4.58,4.58,0,0,0,1-1.48,4.77,4.77,0,0,0,.35-1.8Zm-1.65,0a3.4,3.4,0,0,1-.23,1.23,3.28,3.28,0,0,1-.62,1,2.94,2.94,0,0,1-2.18.93,3,3,0,0,1-2.2-.95,3.13,3.13,0,0,1-.63-1,3.6,3.6,0,0,1,0-2.48,3.23,3.23,0,0,1,.62-1,3,3,0,0,1,1-.68,2.9,2.9,0,0,1,1.22-.25,3,3,0,0,1,2.2,1,3.13,3.13,0,0,1,.63,1,3.41,3.41,0,0,1,.23,1.24Zm3.56,4.47h6.28V47.41H43.5V39.86H41.94v9Zm16.41-4.5A4.67,4.67,0,0,0,58,42.54a4.53,4.53,0,0,0-1-1.48,4.43,4.43,0,0,0-1.47-1,4.7,4.7,0,0,0-1.9-.37,4.91,4.91,0,0,0-1.9.37,4.8,4.8,0,0,0-1.48,1,4.5,4.5,0,0,0-1,1.48,4.72,4.72,0,0,0-.34,1.8,4.67,4.67,0,0,0,.34,1.79,4.5,4.5,0,0,0,1,1.48,4.63,4.63,0,0,0,1.48,1,4.84,4.84,0,0,0,1.9.37,4.66,4.66,0,0,0,1.89-.38,4.54,4.54,0,0,0,1.49-1,4.61,4.61,0,0,0,1-1.48,4.76,4.76,0,0,0,.34-1.8Zm-1.65,0a3.4,3.4,0,0,1-.23,1.23,3.1,3.1,0,0,1-.62,1,3,3,0,0,1-1,.68,3.11,3.11,0,0,1-1.23.25,3,3,0,0,1-1.23-.26,3.06,3.06,0,0,1-1-.69,3.13,3.13,0,0,1-.63-1,3.6,3.6,0,0,1,0-2.48,3.08,3.08,0,0,1,.63-1,2.85,2.85,0,0,1,1-.68,2.91,2.91,0,0,1,1.23-.25,3,3,0,0,1,1.23.26,3.06,3.06,0,0,1,1,.69,3.28,3.28,0,0,1,.62,1,3.41,3.41,0,0,1,.23,1.24Zm14.67-2v6.44h1.56v-9H71.25L68.52,44.1l-2.73-4.24H64.11v9h1.56V42.42l2.81,4.21h0l2.84-4.24Zm10.51-2.53H75.24v9h6.7V47.41H76.8V45h4.5V43.59H76.8V41.28h5.08V39.86Zm10.06,4.47a4.54,4.54,0,0,0-.34-1.77,4.15,4.15,0,0,0-1-1.42,4.53,4.53,0,0,0-1.52-.94,5.16,5.16,0,0,0-1.92-.34H83.83v9h3.35a5,5,0,0,0,1.92-.35,4.7,4.7,0,0,0,1.52-.94,4.29,4.29,0,0,0,1-1.43,4.59,4.59,0,0,0,.34-1.78Zm-1.65,0a3.32,3.32,0,0,1-.22,1.23,3,3,0,0,1-.63,1,2.8,2.8,0,0,1-1,.63,3.47,3.47,0,0,1-1.28.23H85.39V41.28h1.78a3.47,3.47,0,0,1,1.28.23,2.84,2.84,0,0,1,1,.65,3,3,0,0,1,.63,1,3.24,3.24,0,0,1,.22,1.23Zm3.65-4.5v9h1.57v-9Zm8.62-.07H101.1l-3.95,9h1.62l.92-2.17h4.24l.91,2.17h1.67l-4-9Zm.8,5.48h-3.09l1.53-3.59,1.56,3.59Zm16.54,2.32V43.82h-3.83v1.37h2.3v1.69a3.41,3.41,0,0,1-1,.5,3.87,3.87,0,0,1-1.2.18,3.13,3.13,0,0,1-1.25-.24,2.85,2.85,0,0,1-1-.68,2.77,2.77,0,0,1-.62-1,3.55,3.55,0,0,1-.22-1.28,3.41,3.41,0,0,1,.23-1.24,3.32,3.32,0,0,1,.61-1,3,3,0,0,1,.92-.69,2.65,2.65,0,0,1,1.15-.25,3.84,3.84,0,0,1,.78.07,4.11,4.11,0,0,1,.65.19,4.4,4.4,0,0,1,.56.31,6,6,0,0,1,.53.39l1-1.19a5.67,5.67,0,0,0-.72-.52,5,5,0,0,0-.77-.38,4.83,4.83,0,0,0-.89-.23,5.85,5.85,0,0,0-1.07-.09,4.76,4.76,0,0,0-1.87.37,4.64,4.64,0,0,0-1.47,1,4.42,4.42,0,0,0-1,1.48,4.72,4.72,0,0,0-.34,1.8,5,5,0,0,0,.33,1.83,4.51,4.51,0,0,0,.94,1.47,4.38,4.38,0,0,0,1.47,1,4.89,4.89,0,0,0,1.91.36,5.85,5.85,0,0,0,1.13-.11,6.26,6.26,0,0,0,1-.31,5.07,5.07,0,0,0,.87-.44,8.84,8.84,0,0,0,.74-.54Zm9.66,1.24-2.42-3.4a3.19,3.19,0,0,0,.87-.36,2.67,2.67,0,0,0,.67-.58,2.71,2.71,0,0,0,.44-.78,2.89,2.89,0,0,0,.16-1,3,3,0,0,0-.23-1.18,2.29,2.29,0,0,0-.66-.9,3.3,3.3,0,0,0-1-.57,4.67,4.67,0,0,0-1.39-.19h-4v9h1.56V45.7h2l2.21,3.13Zm-1.88-6a1.35,1.35,0,0,1-.5,1.1,2.06,2.06,0,0,1-1.35.42h-2.32v-3h2.3a2.22,2.22,0,0,1,1.38.38,1.33,1.33,0,0,1,.49,1.13Zm12.53,1.54a4.68,4.68,0,0,0-.35-1.79,4.5,4.5,0,0,0-1-1.48,4.37,4.37,0,0,0-1.48-1,4.67,4.67,0,0,0-1.9-.37,4.66,4.66,0,0,0-3.38,1.38,4.47,4.47,0,0,0-1,1.48,4.73,4.73,0,0,0-.35,1.8,4.68,4.68,0,0,0,.35,1.79,4.5,4.5,0,0,0,1,1.48,4.59,4.59,0,0,0,1.47,1,4.88,4.88,0,0,0,1.9.37,4.74,4.74,0,0,0,1.9-.38,4.5,4.5,0,0,0,1.48-1,4.61,4.61,0,0,0,1-1.48,4.77,4.77,0,0,0,.35-1.8Zm-1.66,0a3.39,3.39,0,0,1-.22,1.23,3.13,3.13,0,0,1-.63,1,3,3,0,0,1-.95.68,3.07,3.07,0,0,1-1.23.25,3,3,0,0,1-1.23-.26,3,3,0,0,1-1-.69,3.13,3.13,0,0,1-.63-1,3.46,3.46,0,0,1,0-2.48,3.23,3.23,0,0,1,.62-1,2.79,2.79,0,0,1,1-.68,2.9,2.9,0,0,1,1.22-.25,3,3,0,0,1,2.2,1,3.13,3.13,0,0,1,.63,1,3.41,3.41,0,0,1,.22,1.24Zm11.1-4.5h-1.56V45a2.59,2.59,0,0,1-.61,1.88,2.21,2.21,0,0,1-1.66.62,2.14,2.14,0,0,1-1.67-.65,2.69,2.69,0,0,1-.61-1.91v-5.1H142V45a5,5,0,0,0,.27,1.71A3.31,3.31,0,0,0,143,48a3.09,3.09,0,0,0,1.21.75,4.6,4.6,0,0,0,1.58.25,4.65,4.65,0,0,0,1.59-.25A3.06,3.06,0,0,0,148.6,48a3.33,3.33,0,0,0,.78-1.27,5.19,5.19,0,0,0,.27-1.75V39.86Zm9.12,3a3,3,0,0,0-.24-1.24,2.48,2.48,0,0,0-.68-1,2.88,2.88,0,0,0-1.07-.61,4.55,4.55,0,0,0-1.42-.21h-3.54v9h1.57V46h1.78a4.83,4.83,0,0,0,1.4-.2,3.39,3.39,0,0,0,1.15-.59,2.71,2.71,0,0,0,.77-1,3,3,0,0,0,.28-1.33Zm-1.6,0a1.47,1.47,0,0,1-.52,1.18,2.1,2.1,0,0,1-1.42.44h-1.84V41.28h1.84a2.19,2.19,0,0,1,1.41.41,1.42,1.42,0,0,1,.53,1.21Z"/></g></g></svg>